<?xml version="1.0" standalone="no"?>
<!DOCTYPE svg PUBLIC "-//W3C//DTD SVG 20010904//EN"
 "http://www.w3.org/TR/2001/REC-SVG-20010904/DTD/svg10.dtd">
<svg version="1.0" xmlns="http://www.w3.org/2000/svg"
 width="1080.000000pt" height="1558.000000pt" viewBox="0 0 1080.000000 1558.000000"
 preserveAspectRatio="xMidYMid meet">

<g transform="translate(0.000000,1558.000000) scale(0.100000,-0.100000)"
fill="#000000" stroke="none">
<path d="M5225 11536 c-276 -63 -714 -374 -1219 -866 -272 -265 -458 -488
-660 -788 -70 -106 -97 -155 -111 -205 -18 -66 -15 -102 7 -95 6 2 19 31 28
64 20 73 36 104 113 219 169 253 337 458 560 684 473 479 909 812 1209 922
133 49 226 42 284 -23 50 -54 58 -86 62 -232 8 -285 -56 -698 -168 -1086 -32
-112 -119 -375 -145 -443 -4 -9 -57 -59 -119 -110 -605 -502 -2221 -2019
-2669 -2504 -154 -168 -178 -199 -170 -219 8 -23 34 -16 106 26 185 108 1254
867 2220 1577 150 110 166 120 153 91 -142 -330 -586 -1255 -843 -1758 -318
-623 -503 -965 -663 -1225 -313 -510 -681 -1137 -801 -1362 -43 -82 -51 -105
-41 -115 10 -10 16 -8 31 7 30 31 553 917 848 1435 153 270 279 472 993 1595
266 418 596 938 733 1155 138 217 310 488 383 601 l134 206 67 31 c89 40 131
49 139 28 9 -23 -15 -123 -53 -218 -134 -335 -893 -1493 -1327 -2024 -58 -71
-104 -133 -103 -139 2 -5 10 -11 18 -13 8 -1 125 89 260 200 720 595 1189 965
1774 1402 742 555 723 542 740 520 15 -19 15 -19 30 0 35 45 7 91 -39 66 -61
-32 -1012 -741 -1356 -1010 -246 -192 -720 -573 -1047 -842 -106 -87 -195
-158 -198 -158 -2 0 32 46 76 103 333 428 932 1336 1135 1722 102 195 152 374
115 418 -17 21 -74 22 -131 2 -23 -8 -44 -15 -46 -15 -6 0 112 176 310 460
227 327 396 584 425 647 21 45 22 55 10 69 -21 26 -90 12 -188 -37 -107 -54
-507 -321 -701 -467 -80 -60 -146 -109 -146 -108 -1 0 25 81 57 179 136 413
212 780 238 1154 19 274 -17 406 -129 463 -50 26 -116 31 -185 16z m1015
-1234 c0 -20 -125 -215 -314 -489 -110 -161 -263 -383 -339 -495 l-137 -201
-73 -40 c-89 -48 -297 -184 -435 -284 -57 -41 -105 -73 -107 -71 -2 2 42 112
99 243 57 132 143 339 191 460 49 121 94 225 101 230 6 6 81 62 165 126 422
319 849 581 849 521z m-1171 -909 c-85 -207 -281 -669 -305 -715 -26 -50
-2032 -1500 -2398 -1732 l-58 -37 23 33 c36 52 827 839 1114 1109 399 375
1043 968 1325 1220 92 82 371 319 376 319 1 0 -33 -89 -77 -197z m291 -415
c-75 -116 -539 -846 -1098 -1728 -305 -481 -559 -879 -563 -885 -5 -5 123 254
284 575 293 586 523 1063 709 1475 l99 220 177 127 c171 122 409 278 425 278
4 0 -11 -28 -33 -62z"/>
</g>
</svg>
