<?xml version="1.0" standalone="no"?>
<!DOCTYPE svg PUBLIC "-//W3C//DTD SVG 20010904//EN"
 "http://www.w3.org/TR/2001/REC-SVG-20010904/DTD/svg10.dtd">
<svg version="1.0" xmlns="http://www.w3.org/2000/svg"
 width="1920.000000pt" height="1229.000000pt" viewBox="0 0 1920.000000 1229.000000"
 preserveAspectRatio="xMidYMid meet">

<g transform="translate(0.000000,1229.000000) scale(0.100000,-0.100000)"
fill="#000000" stroke="none">
<path d="M9383 9754 c51 -170 70 -379 50 -542 l-6 -53 -87 -45 c-406 -209
-992 -711 -1682 -1439 l-199 -210 7 -70 c14 -150 55 -263 139 -380 69 -96 100
-120 202 -154 147 -49 328 -147 489 -267 42 -30 77 -54 77 -52 101 206 185
297 352 378 161 78 332 119 602 145 228 21 296 32 408 66 339 104 582 343 710
702 15 42 30 76 32 73 2 -2 -1 -41 -7 -87 -40 -324 -213 -577 -585 -856 -109
-81 -220 -154 -490 -323 -318 -199 -435 -275 -546 -357 -507 -375 -752 -749
-799 -1222 -14 -143 -13 -258 3 -271 6 -5 36 -28 66 -50 176 -128 281 -404
281 -740 l0 -84 57 -83 57 -83 926 0 927 0 6 203 c13 417 77 784 192 1101 92
255 164 396 423 829 296 494 423 792 516 1209 39 174 56 308 56 452 0 422
-155 785 -478 1118 -93 96 -126 119 -83 60 35 -49 127 -243 161 -337 58 -164
81 -284 87 -462 17 -488 -152 -928 -687 -1788 -568 -911 -741 -1258 -811
-1625 -29 -154 -30 -155 -46 -80 -22 99 -22 390 0 518 75 440 265 864 675
1507 343 538 491 839 586 1199 75 281 75 583 0 805 -73 215 -235 421 -469 596
-121 91 -338 195 -406 195 -11 0 -29 25 -53 77 -118 247 -315 388 -615 438
-39 6 -42 5 -38 -11z m-5 -1117 c6 -33 -8 -67 -45 -108 -67 -74 -80 -79 -205
-83 -164 -5 -242 -33 -469 -167 -64 -38 -119 -69 -123 -69 -4 0 7 19 26 42
143 181 311 308 488 367 88 30 150 39 245 38 69 -2 80 -5 83 -20z"/>
<path d="M11556 6292 c-42 -85 -148 -271 -296 -517 -135 -225 -256 -455 -311
-593 -154 -383 -232 -798 -241 -1287 l-2 -140 239 -3 240 -2 49 80 49 81 -36
72 c-60 120 -78 213 -84 437 -10 384 40 646 256 1345 109 352 174 576 169 581
-2 2 -17 -22 -32 -54z"/>
<path d="M8678 3568 c-85 -49 -75 -163 17 -198 17 -6 430 -10 1141 -10 1216 0
1146 -3 1193 56 42 54 15 131 -55 160 -28 12 -223 14 -1146 14 l-1113 0 -37
-22z"/>
<path d="M8073 2866 c-112 -184 -203 -337 -203 -340 0 -3 869 -6 1931 -6 1576
0 1930 2 1926 13 -3 7 -79 134 -169 282 -91 149 -180 296 -199 328 l-34 57
-1525 0 -1525 0 -202 -334z"/>
</g>
</svg>
